<svg width="720" height="1080" viewBox="0 0 720 1080" fill="none" xmlns="http://www.w3.org/2000/svg">
  <rect width="720" height="1080" rx="36" fill="#F3EFE7"/>
  <rect x="36" y="36" width="648" height="1008" rx="28" fill="#FFFDF8" stroke="#D9D0C3" stroke-width="4"/>
  <rect x="88" y="92" width="544" height="160" rx="24" fill="#E8DED0"/>
  <text x="118" y="156" fill="#382E27" font-family="Avenir Next, Segoe UI, sans-serif" font-size="36" font-weight="700">Standing</text>
  <text x="118" y="204" fill="#6F6459" font-family="Avenir Next, Segoe UI, sans-serif" font-size="24">grips • kuzushi • entry timing</text>
  <circle cx="270" cy="520" r="72" fill="#DDBA9A"/>
  <rect x="232" y="596" width="76" height="174" rx="34" fill="#1E1C1A"/>
  <rect x="194" y="616" width="46" height="150" rx="23" fill="#1E1C1A"/>
  <rect x="300" y="616" width="46" height="150" rx="23" fill="#1E1C1A"/>
  <rect x="226" y="766" width="34" height="148" rx="17" fill="#1E1C1A"/>
  <rect x="280" y="766" width="34" height="148" rx="17" fill="#1E1C1A"/>
  <circle cx="450" cy="486" r="72" fill="#DDBA9A"/>
  <rect x="412" y="562" width="76" height="174" rx="34" fill="#F6F2EC" stroke="#D4C7B8" stroke-width="4"/>
  <rect x="374" y="584" width="46" height="144" rx="23" fill="#F6F2EC" stroke="#D4C7B8" stroke-width="4"/>
  <rect x="480" y="584" width="46" height="144" rx="23" fill="#F6F2EC" stroke="#D4C7B8" stroke-width="4"/>
  <rect x="406" y="730" width="34" height="148" rx="17" fill="#F6F2EC" stroke="#D4C7B8" stroke-width="4"/>
  <rect x="460" y="730" width="34" height="148" rx="17" fill="#F6F2EC" stroke="#D4C7B8" stroke-width="4"/>
  <path d="M304 652C338 638 374 624 412 610" stroke="#B85D3B" stroke-width="14" stroke-linecap="round"/>
  <path d="M420 612C401 596 386 578 376 558" stroke="#B85D3B" stroke-width="14" stroke-linecap="round"/>
  <text x="88" y="968" fill="#7F301C" font-family="Avenir Next, Segoe UI, sans-serif" font-size="28" font-weight="700">Position art</text>
  <text x="88" y="1008" fill="#6F6459" font-family="Avenir Next, Segoe UI, sans-serif" font-size="22">Representative board for throws, takedowns, and standing exchanges</text>
</svg>
